<?xml version="1.0" encoding="UTF-8"?>
<svg id="Layer_1" data-name="Layer 1" xmlns="http://www.w3.org/2000/svg" xmlns:xlink="http://www.w3.org/1999/xlink" viewBox="0 0 4000 3000">
  <defs>
    <style>
      .cls-1 {
        fill: url(#linear-gradient);
      }

      .cls-1, .cls-2, .cls-3, .cls-4, .cls-5, .cls-6, .cls-7, .cls-8, .cls-9 {
        stroke-width: 0px;
      }

      .cls-2 {
        fill: url(#linear-gradient-6);
      }

      .cls-4 {
        fill: url(#linear-gradient-5);
      }

      .cls-5 {
        fill: url(#linear-gradient-2);
      }

      .cls-6 {
        fill: url(#linear-gradient-7);
      }

      .cls-7 {
        fill: url(#linear-gradient-3);
      }

      .cls-8 {
        fill: url(#linear-gradient-8);
      }

      .cls-9 {
        fill: url(#linear-gradient-4);
      }
    </style>
    <linearGradient id="linear-gradient" x1="2459.58" y1="1621.6" x2="1747.34" y2="863.4" gradientUnits="userSpaceOnUse">
      <stop offset="0" stop-color="#003dff"/>
      <stop offset="1" stop-color="#00b0ff"/>
    </linearGradient>
    <linearGradient id="linear-gradient-2" x1="2285.21" y1="1785.4" x2="1572.96" y2="1027.21" xlink:href="#linear-gradient"/>
    <linearGradient id="linear-gradient-3" x1="2469.56" y1="1612.23" x2="1757.31" y2="854.03" xlink:href="#linear-gradient"/>
    <linearGradient id="linear-gradient-4" x1="2307.31" y1="1764.65" x2="1595.06" y2="1006.45" xlink:href="#linear-gradient"/>
    <linearGradient id="linear-gradient-5" x1="2085.43" y1="1973.08" x2="1373.18" y2="1214.88" xlink:href="#linear-gradient"/>
    <linearGradient id="linear-gradient-6" x1="2093.9" y1="1965.12" x2="1381.66" y2="1206.92" xlink:href="#linear-gradient"/>
    <linearGradient id="linear-gradient-7" x1="2150.12" y1="1912.31" x2="1437.87" y2="1154.11" xlink:href="#linear-gradient"/>
    <linearGradient id="linear-gradient-8" x1="1207.14" y1="2022.85" x2="1186.08" y2="2082.21" xlink:href="#linear-gradient"/>
  </defs>
  <g>
    <path class="cls-1" d="M2519.2,1194.5c-20.45-22.08-46.62-37.85-76.04-44.66,3.85-6.74,7.25-13.47,10.15-20.72,7.16-17.47,11.08-36.23,11.08-61.11,0-44.84-16.78-85.5-43.9-114.99-27.11-29.33-64.61-47.57-105.95-47.57-5.28,0-10.57.35-15.85.94-6.39-34.61-22.68-65.21-45.35-88.31-27.44-27.95-64.36-45-104.84-45s-78.6,17.72-106.22,46.54c-12.02,12.53-22.15,27.19-29.91,43.48v897.75c7.76,16.29,17.9,30.95,29.91,43.48,27.62,28.89,65.13,46.54,106.22,46.54s78.67-17.65,106.29-46.54c23.19-24.3,39.47-56.52,44.93-92.74h1.52c23.42,0,46.23-5.77,66.84-16.62,26.59-13.99,49.52-36.32,65.29-65.13,15.78-28.73,22.76-61.29,21.39-93.34-1.02-21.14-5.7-42.11-13.98-61.62,32.82-7.08,61.8-25.41,83.36-51.14,24.9-29.5,39.99-68.72,39.99-111.76,0-46.29-17.14-87.55-44.93-117.46ZM2314.53,944.92c28.83,0,56.14,12.38,76.93,34.85,21.58,23.48,33.45,54.81,33.45,88.23,0,18.42-2.43,32.22-8.13,46.14l-.06.16-.07.15c-1.97,4.94-4.44,9.97-7.79,15.85l-26.21,46.02,51.61,11.96c21.14,4.9,40.5,16.33,56.02,33.07,18.49,19.91,30.04,45.6,33.36,73.63l-171.03-14.63c-6.59-25.92-30.1-45.1-58.09-45.1-2.76,0-5.47.19-8.13.56l-61.16-119.92c10.31-10.77,16.65-25.38,16.65-41.46,0-13.17-4.25-25.37-11.48-35.25l64.21-92.61,8.48-.96c4.11-.45,7.84-.69,11.42-.69ZM2330.11,1295.19c0,8.39-2.89,16.1-7.78,22.18-5.54,6.96-13.63,11.78-22.85,13.06-1.62.23-3.27.35-4.96.35-13.03,0-24.42-7-30.63-17.46-3.14-5.31-4.96-11.51-4.96-18.13s1.65-12.27,4.56-17.41c6.08-10.85,17.71-18.17,31.02-18.17,1.4,0,2.78.09,4.14.25,11.68,1.34,21.62,8.35,27.05,18.2,2.81,5.09,4.4,10.92,4.4,17.13ZM2177.81,1109.76c-11.43-1.32-21.23-8.07-26.71-17.6-3.01-5.22-4.74-11.27-4.74-17.73,0-8.14,2.73-15.66,7.35-21.65,6.51-8.48,16.73-13.93,28.23-13.93.22,0,.44,0,.64.01,14.75.25,27.33,9.5,32.46,22.5,1.61,4.05,2.49,8.45,2.49,13.07,0,6.32-1.65,12.25-4.55,17.4h0c-6.1,10.86-17.72,18.19-31.04,18.19-1.4,0-2.78-.09-4.14-.25ZM2051.83,872.62c5.26-9.43,11.61-18.04,18.95-25.7,21.24-22.16,48.85-34.37,77.71-34.37s55.67,11.78,76.67,33.17c17.88,18.22,29.87,41.67,34.71,67.84l2.02,10.97-63.89,92.14c-5.1-1.42-10.48-2.18-16.04-2.18-24.78,0-46.05,15.04-55.19,36.49l-74.93-4.96v-173.4ZM2051.83,1085.58l72.33,4.8c6.99,25.37,30.22,43.99,57.79,43.99,2.76,0,5.47-.19,8.13-.56l61.16,119.92c-10.31,10.77-16.65,25.38-16.65,41.46s6.74,31.59,17.62,42.44l-63.38,131.79c-1.78-.16-3.58-.25-5.41-.25-29.36,0-53.8,21.13-58.95,48.99l-72.63,14.93v-447.51ZM2219,1529.11c0,4.84-.97,9.44-2.72,13.64-5.35,12.88-18.06,21.94-32.87,21.94h-.01c-10.95,0-20.75-4.96-27.27-12.75-5.19-6.18-8.3-14.14-8.3-22.84,0-5.99,1.48-11.65,4.12-16.61,4.99-9.46,14.12-16.39,24.99-18.38,2.09-.39,4.27-.6,6.48-.6,12.49,0,23.48,6.45,29.83,16.18,3.66,5.59,5.76,12.24,5.76,19.4ZM2260.67,1705.68c-4.06,27.02-16.3,52.36-34.43,71.35-21.16,22.15-48.77,34.34-77.75,34.34s-56.51-12.19-77.72-34.39c-7.32-7.65-13.67-16.26-18.93-25.69v-177.91l78.64-16.16c10.07,18.93,30,31.83,52.94,31.83,4.68,0,9.23-.54,13.6-1.55l65.03,109.01-1.37,9.17ZM2493.98,1398.25l-.04.06-.04.06c-16.51,19.69-37.75,32.79-61.43,37.9l-46.64,10.06,18.61,43.93c6.4,15.12,10.07,31.27,10.89,48.01,1.08,25.78-4.65,50.85-16.59,72.6-11.74,21.45-28.69,38.45-49.05,49.14-15.23,8.03-31.54,12.09-48.45,12.09h-1.1l-6.73-.07-63.03-105.66c8.13-10.23,12.98-23.17,12.98-37.25,0-17.06-7.13-32.46-18.57-43.38l63-130.98c2.21.25,4.46.38,6.74.38,24.37,0,45.35-14.56,54.72-35.45l173.59,14.85c-3.86,23.77-13.77,45.83-28.86,63.72Z"/>
    <path class="cls-5" d="M1851.52,773.07c-40.5,0-77.4,17.05-104.86,45-22.68,23.1-38.95,53.7-45.34,88.31-5.29-.59-10.57-.94-15.86-.94-41.35,0-78.85,18.25-105.95,47.57-27.11,29.49-43.9,70.15-43.9,114.99,0,24.88,3.93,43.64,11.08,61.11,2.91,7.25,6.32,13.98,10.15,20.72-29.4,6.81-55.57,22.59-76.03,44.66-27.79,29.91-44.93,71.17-44.93,117.46,0,43.04,15.09,82.25,39.97,111.76,21.56,25.73,50.56,44.07,83.36,51.14-8.26,19.52-12.95,40.48-13.98,61.62-1.36,32.05,5.63,64.61,21.4,93.34,15.76,28.82,38.7,51.14,65.29,65.13,21.05,11.08,44.4,16.87,68.36,16.62,5.45,36.21,21.73,68.44,44.91,92.74,27.62,28.89,65.12,46.54,106.3,46.54s78.58-17.65,106.2-46.54c12.02-12.53,22.16-27.19,29.93-43.48v-90.22l-44.84,44.84h-66.89c-7.56,20.26-27.08,34.71-49.99,34.71-29.45,0-53.32-23.88-53.32-53.32s23.87-53.32,53.32-53.32c23.16,0,42.87,14.77,50.22,35.38h51.52l59.97-59.99v-159.61h-97.18l-85.09,85.09h-74.2c-7.56,20.26-27.08,34.71-49.99,34.71-29.45,0-53.32-23.88-53.32-53.32s23.87-53.32,53.32-53.32c23.16,0,42.87,14.77,50.22,35.38h58.83l85.08-85.09h112.33v-92.52h-351.38c-7.46,20.44-27.06,35.04-50.1,35.04-29.45,0-53.32-23.88-53.32-53.32s23.87-53.32,53.32-53.32c23.04,0,42.65,14.61,50.1,35.04h351.38v-92.52h-112.33l-85.08-85.09h-58.83c-7.35,20.61-27.06,35.38-50.22,35.38-29.45,0-53.32-23.88-53.32-53.32s23.87-53.32,53.32-53.32c22.91,0,42.43,14.44,49.99,34.71h74.2l85.09,85.09h97.18v-159.61l-59.97-59.99h-51.52c-7.35,20.61-27.06,35.38-50.22,35.38-29.45,0-53.32-23.88-53.32-53.32s23.87-53.32,53.32-53.32c22.91,0,42.43,14.44,49.99,34.71h66.89l44.84,44.84v-90.22c-7.76-16.29-17.91-30.95-29.93-43.48-27.62-28.82-65.12-46.54-106.2-46.54Z"/>
    <path class="cls-7" d="M1803.49,904.64c-12.38,12.4-12.38,32.49,0,44.88,12.4,12.4,32.5,12.4,44.88,0,1.4-1.4,2.66-2.91,3.73-4.5,7.57-10.99,7.41-25.7-.45-36.55-.98-1.34-2.06-2.62-3.27-3.83-12.38-12.4-32.49-12.4-44.88,0Z"/>
    <path class="cls-9" d="M1658.75,1075.7c-12.38,12.4-12.38,32.49,0,44.88,12.4,12.4,32.5,12.4,44.88,0,3.79-3.79,6.42-8.3,7.89-13.1,1.87-6.08,1.87-12.6,0-18.68-1.48-4.8-4.11-9.31-7.89-13.1-12.38-12.4-32.49-12.4-44.88,0Z"/>
    <path class="cls-4" d="M1803.49,1674.4c-12.38,12.4-12.38,32.49,0,44.88,12.4,12.4,32.5,12.4,44.88,0,1.21-1.21,2.3-2.49,3.27-3.83,7.87-10.85,8.03-25.56.45-36.55-1.07-1.59-2.32-3.1-3.73-4.5-12.38-12.4-32.49-12.4-44.88,0Z"/>
    <path class="cls-2" d="M1658.75,1503.34c-12.38,12.4-12.38,32.49,0,44.88,12.4,12.4,32.5,12.4,44.88,0,3.79-3.79,6.42-8.3,7.89-13.1,1.87-6.08,1.87-12.6,0-18.68-1.48-4.8-4.11-9.31-7.89-13.1-12.38-12.4-32.49-12.4-44.88,0Z"/>
    <path class="cls-6" d="M1563.72,1289.52c-12.38,12.4-12.38,32.49,0,44.88,12.4,12.4,32.5,12.4,44.88,0,5.1-5.1,8.1-11.51,9.01-18.14.39-2.85.39-5.75,0-8.6-.91-6.64-3.9-13.04-9.01-18.14-12.38-12.4-32.49-12.4-44.88,0Z"/>
  </g>
  <g>
    <path class="cls-3" d="M977.8,2079.69c-13.94-6.16-30.37-11.46-49.3-15.92-15.52-3.93-28.4-7.6-38.65-11.01-10.25-3.4-17.88-7.66-22.88-12.78-5-5.11-7.49-12.12-7.49-21.03,0-12.06,4.47-21.49,13.41-28.31,8.94-6.82,22.61-10.22,41.02-10.22,8.41,0,16.57.92,24.45,2.76,7.89,1.84,15.25,4.21,22.09,7.1,6.83,2.9,12.75,5.98,17.75,9.27,4.99,3.29,8.81,6.38,11.44,9.27l20.12-36.28c-8.15-6.05-17.16-11.44-27.02-16.17-9.86-4.73-20.45-8.48-31.75-11.24-11.31-2.76-23.27-4.14-35.89-4.14-19.2,0-36.48,3.22-51.87,9.64-15.38,6.42-27.55,15.99-36.48,28.71-8.94,12.72-13.41,28.26-13.41,46.61,0,14.42,3.09,26.29,9.27,35.6,6.17,9.31,15.44,16.92,27.81,22.81,12.36,5.9,27.74,11.34,46.15,16.32,16.04,3.93,29.84,7.87,41.41,11.8,11.57,3.93,20.37,8.72,26.43,14.35,6.05,5.64,9.07,13.17,9.07,22.62,0,11.51-4.67,20.33-14,26.47-9.34,6.14-22.81,9.21-40.43,9.21-10.52,0-20.84-1.25-30.96-3.75-10.13-2.5-19.46-5.58-28-9.27-8.55-3.68-16.04-7.55-22.48-11.64-6.45-4.07-11.38-7.82-14.79-11.24l-20.11,37.86c10.51,8.15,22.02,15.05,34.51,20.71,12.49,5.66,25.64,9.93,39.44,12.82,13.8,2.89,27.67,4.34,41.61,4.34s27.47-1.51,39.84-4.52c12.36-3.01,23.27-7.73,32.74-14.16,9.47-6.42,16.82-14.74,22.09-24.96,5.26-10.22,7.89-22.41,7.89-36.56,0-16.77-3.69-30.27-11.04-40.49-7.36-10.22-18.01-18.41-31.95-24.57Z"/>
    <path class="cls-3" d="M1500.43,2029.78c-15.65-9.76-34.25-14.65-55.81-14.65s-40.37,4.88-56.4,14.63c-16.04,9.75-28.53,22.62-37.47,38.62-8.94,15.99-13.41,33.61-13.41,52.85,0,14.36,2.56,27.86,7.69,40.52,5.13,12.66,12.42,23.88,21.89,33.67,9.47,9.79,20.71,17.49,33.72,23.1,13.02,5.61,27.54,8.42,43.58,8.42,14.46,0,27.87-2.31,40.23-6.9,12.36-4.6,23.07-10.91,32.14-18.93,9.07-8.02,15.84-17.02,20.31-27.02l-37.07-10.65c-3.69,9.47-10.72,17.1-21.1,22.88-10.39,5.79-21.37,8.68-32.93,8.68-10.52,0-20.38-2.53-29.58-7.59-9.21-5.06-16.76-12.07-22.68-21.02-5.92-8.95-9.27-19.39-10.06-31.34h165.26c.26-1.82.52-4.1.79-6.83.26-2.73.39-5.66.39-8.79,0-18.22-4.34-35.28-13.02-51.16-8.68-15.88-20.84-28.71-36.48-38.47ZM1382.3,2106.24c.79-11.6,4.07-21.85,9.86-30.74,5.78-8.89,13.21-15.85,22.28-20.88,9.07-5.03,18.99-7.54,29.78-7.54s21.1,2.51,30.17,7.54c9.07,5.03,16.57,11.99,22.48,20.88,5.92,8.89,9.27,19.14,10.06,30.74h-124.63Z"/>
    <path class="cls-3" d="M1757.97,2184.77c-1.71-2.08-2.56-5.59-2.56-10.53v-76.05c0-26.51-7.96-46.98-23.86-61.42-15.91-14.43-37.67-21.64-65.28-21.64-15.25,0-29.78,2.24-43.58,6.7-13.8,4.47-27.55,11.31-41.22,20.51l14.59,29.19c11.57-7.36,22.48-13.08,32.74-17.16,10.26-4.07,21.16-6.11,32.74-6.11,16.3,0,28.79,4.01,37.47,12.04,8.68,8.02,13.02,19.16,13.02,33.4v12.94c-7.36-2.89-15.84-4.99-25.44-6.31-9.6-1.31-19-1.97-28.2-1.97-17.35,0-32.61,2.67-45.75,8.01-13.15,5.34-23.47,12.9-30.96,22.67-7.49,9.77-11.24,21.17-11.24,34.2,0,11.99,3.02,22.8,9.07,32.44,6.05,9.64,14.46,17.26,25.24,22.86,10.78,5.6,23.01,8.4,36.68,8.4s28.26-3.16,42.2-9.47c13.93-6.31,25.37-15.25,34.31-26.82l1.18,11.83c.79,6.05,3.55,11.31,8.28,15.78,4.73,4.47,11.7,6.7,20.9,6.7,2.1,0,4.73-.14,7.89-.4,3.16-.26,6.7-.79,10.65-1.58v-34.71c-4.21-.26-7.17-1.42-8.87-3.51ZM1712.03,2156.58c0,2.59-.92,5.56-2.76,8.92-1.84,3.36-4.34,6.72-7.49,10.08-5.26,5.69-12.23,10.35-20.9,13.97-8.68,3.62-17.75,5.43-27.21,5.43s-16.9-1.68-23.07-5.04c-6.18-3.36-10.91-7.75-14.2-13.19-3.29-5.43-4.93-11.12-4.93-17.06,0-10.86,4.93-19.39,14.79-25.6,9.86-6.21,22.68-9.31,38.45-9.31,7.89,0,15.91.71,24.06,2.13,8.15,1.42,15.91,3.56,23.27,6.4v23.27Z"/>
    <path class="cls-3" d="M1899.76,2183.94c-5.52,2.11-11.31,3.16-17.35,3.16s-11.11-1.7-15.19-5.1c-4.08-3.4-6.38-8.62-6.9-15.68v-114.5h44.96v-33.52h-44.96v-67.84h-43.39v67.84h-27.21v33.52h27.21v128.39c0,10.99,2.3,19.96,6.9,26.9,4.6,6.94,10.71,11.97,18.34,15.12,7.62,3.14,15.91,4.71,24.85,4.71,7.36,0,14.53-.79,21.5-2.37,6.96-1.58,13.21-3.41,18.73-5.52,5.52-2.1,10.12-4.07,13.8-5.92l-9.07-34.31c-2.63,1.32-6.7,3.03-12.23,5.13Z"/>
    <path class="cls-3" d="M2124.53,2079.69c-13.94-6.16-30.37-11.46-49.3-15.92-15.52-3.93-28.4-7.6-38.65-11.01-10.25-3.4-17.88-7.66-22.88-12.78-5-5.11-7.49-12.12-7.49-21.03,0-12.06,4.47-21.49,13.41-28.31,8.94-6.82,22.61-10.22,41.02-10.22,8.41,0,16.57.92,24.45,2.76,7.89,1.84,15.25,4.21,22.09,7.1,6.83,2.9,12.75,5.98,17.75,9.27,4.99,3.29,8.81,6.38,11.44,9.27l20.11-36.28c-8.15-6.05-17.16-11.44-27.02-16.17-9.86-4.73-20.45-8.48-31.75-11.24-11.31-2.76-23.27-4.14-35.89-4.14-19.2,0-36.48,3.22-51.87,9.64-15.38,6.42-27.55,15.99-36.48,28.71-8.94,12.72-13.41,28.26-13.41,46.61,0,14.42,3.09,26.29,9.27,35.6,6.17,9.31,15.44,16.92,27.81,22.81,12.36,5.9,27.74,11.34,46.15,16.32,16.04,3.93,29.84,7.87,41.41,11.8,11.57,3.93,20.37,8.72,26.42,14.35,6.05,5.64,9.07,13.17,9.07,22.62,0,11.51-4.67,20.33-14,26.47-9.34,6.14-22.81,9.21-40.43,9.21-10.52,0-20.84-1.25-30.96-3.75-10.13-2.5-19.46-5.58-28-9.27-8.55-3.68-16.04-7.55-22.48-11.64-6.45-4.07-11.38-7.82-14.79-11.24l-20.11,37.86c10.51,8.15,22.02,15.05,34.51,20.71,12.49,5.66,25.64,9.93,39.44,12.82,13.8,2.89,27.67,4.34,41.61,4.34s27.47-1.51,39.84-4.52c12.36-3.01,23.27-7.73,32.74-14.16,9.47-6.42,16.83-14.74,22.09-24.96,5.26-10.22,7.89-22.41,7.89-36.56,0-16.77-3.68-30.27-11.04-40.49-7.36-10.22-18.01-18.41-31.95-24.57Z"/>
    <path class="cls-3" d="M2377.54,2039.94c-4.87-7.68-11.51-13.74-19.92-18.17-8.42-4.43-19.07-6.64-31.95-6.64-15.78,0-30.51,3.98-44.17,11.92-13.68,7.94-24.45,18.82-32.34,32.62v-124.6h-43.38v287.92h43.38v-121.51c2.89-9.31,7.49-17.51,13.8-24.62,6.31-7.11,13.54-12.73,21.69-16.87,8.15-4.14,16.03-6.21,23.66-6.21,12.36,0,21.95,4.55,28.79,13.64,6.83,9.1,10.26,22.87,10.26,41.33v114.23h43.38v-124.63c0-11.2-.99-21.81-2.96-31.84-1.97-10.03-5.39-18.88-10.26-26.57Z"/>
    <path class="cls-3" d="M2613.79,2184.77c-1.71-2.08-2.56-5.59-2.56-10.53v-76.05c0-26.51-7.96-46.98-23.86-61.42-15.91-14.43-37.67-21.64-65.27-21.64-15.25,0-29.78,2.24-43.58,6.7-13.81,4.47-27.55,11.31-41.22,20.51l14.59,29.19c11.57-7.36,22.48-13.08,32.74-17.16,10.25-4.07,21.16-6.11,32.74-6.11,16.3,0,28.79,4.01,37.47,12.04,8.68,8.02,13.02,19.16,13.02,33.4v12.94c-7.36-2.89-15.84-4.99-25.44-6.31-9.6-1.31-19-1.97-28.2-1.97-17.35,0-32.61,2.67-45.75,8.01-13.15,5.34-23.47,12.9-30.96,22.67-7.49,9.77-11.24,21.17-11.24,34.2,0,11.99,3.02,22.8,9.07,32.44,6.05,9.64,14.46,17.26,25.24,22.86,10.78,5.6,23,8.4,36.68,8.4s28.26-3.16,42.2-9.47c13.93-6.31,25.37-15.25,34.31-26.82l1.18,11.83c.79,6.05,3.55,11.31,8.28,15.78,4.73,4.47,11.7,6.7,20.9,6.7,2.1,0,4.73-.14,7.89-.4,3.16-.26,6.7-.79,10.65-1.58v-34.71c-4.21-.26-7.17-1.42-8.87-3.51ZM2567.84,2156.58c0,2.59-.92,5.56-2.76,8.92-1.84,3.36-4.34,6.72-7.49,10.08-5.26,5.69-12.23,10.35-20.9,13.97-8.68,3.62-17.75,5.43-27.21,5.43s-16.9-1.68-23.07-5.04c-6.18-3.36-10.91-7.75-14.2-13.19-3.29-5.43-4.93-11.12-4.93-17.06,0-10.86,4.93-19.39,14.79-25.6,9.86-6.21,22.68-9.31,38.45-9.31,7.89,0,15.91.71,24.06,2.13,8.15,1.42,15.91,3.56,23.27,6.4v23.27Z"/>
    <path class="cls-3" d="M2768.59,2014.74c-12.89.79-25.11,5.46-36.68,14-11.57,8.55-20.9,19.92-28,34.12v-44.57h-40.23v204.7h43.38v-126.21c5.52-13.41,14.79-23.79,27.81-31.16,13.02-7.36,27.94-11.17,44.77-11.44v-39.05c-1.32-.26-2.83-.39-4.53-.39h-6.51Z"/>
    <path class="cls-3" d="M2957.32,2029.78c-15.65-9.76-34.25-14.65-55.81-14.65s-40.36,4.88-56.4,14.63c-16.04,9.75-28.53,22.62-37.47,38.62-8.94,15.99-13.41,33.61-13.41,52.85,0,14.36,2.56,27.86,7.69,40.52,5.13,12.66,12.42,23.88,21.89,33.67,9.47,9.79,20.71,17.49,33.72,23.1,13.02,5.61,27.54,8.42,43.58,8.42,14.46,0,27.87-2.31,40.23-6.9,12.36-4.6,23.07-10.91,32.15-18.93,9.07-8.02,15.84-17.02,20.31-27.02l-37.08-10.65c-3.68,9.47-10.72,17.1-21.1,22.88-10.39,5.79-21.37,8.68-32.93,8.68-10.52,0-20.38-2.53-29.58-7.59-9.21-5.06-16.76-12.07-22.68-21.02-5.92-8.95-9.27-19.39-10.06-31.34h165.26c.26-1.82.52-4.1.79-6.83.26-2.73.4-5.66.4-8.79,0-18.22-4.34-35.28-13.02-51.16-8.68-15.88-20.84-28.71-36.48-38.47ZM2839.2,2106.24c.79-11.6,4.07-21.85,9.86-30.74,5.78-8.89,13.21-15.85,22.28-20.88,9.07-5.03,18.99-7.54,29.78-7.54s21.1,2.51,30.17,7.54c9.07,5.03,16.57,11.99,22.48,20.88,5.92,8.89,9.27,19.14,10.06,30.74h-124.63Z"/>
    <path class="cls-3" d="M3188.05,2134.67c-6.18-7.15-14.93-13-26.23-17.56-11.31-4.55-24.98-9.16-41.02-13.85-9.21-2.86-16.96-5.46-23.27-7.8-6.31-2.34-11.04-5.2-14.2-8.58-3.16-3.38-4.73-7.8-4.73-13.26,0-6.76,1.9-12.03,5.72-15.8,3.81-3.77,8.61-6.37,14.4-7.8,5.78-1.43,11.83-2.14,18.14-2.14,11.04,0,21.36,1.97,30.96,5.92,9.6,3.94,18.99,10.13,28.2,18.54l18.54-28.79c-9.73-9.72-20.97-16.89-33.72-21.5-12.76-4.6-26.62-6.9-41.61-6.9-16.04,0-30.17,2.48-42.4,7.43-12.23,4.96-21.76,12.12-28.59,21.5-6.84,9.38-10.25,20.71-10.25,33.99,0,10.95,2.49,19.93,7.49,26.96,4.99,7.04,12.49,12.96,22.48,17.78,9.99,4.82,22.35,9.45,37.07,13.87,10.51,2.87,19.52,5.48,27.02,7.82,7.49,2.34,13.21,5.08,17.16,8.2,3.94,3.13,5.92,7.95,5.92,14.46,0,8.76-3.81,15.39-11.44,19.9-7.63,4.51-17.49,6.76-29.58,6.76s-23.73-2.37-35.69-7.1c-11.97-4.73-23.86-12.36-35.69-22.87l-16.17,29.19c11.04,11.31,24.32,19.79,39.84,25.44,15.51,5.65,31.95,8.48,49.3,8.48,24.71,0,44.5-5.52,59.36-16.58,14.85-11.06,22.28-26.46,22.28-46.23,0-12.48-3.09-22.3-9.27-29.45Z"/>
    <polygon class="cls-8" points="1226.83 2018.68 1227.87 2016.1 1192.48 2016.1 1177.14 2055.76 1194.29 2100.12 1226.83 2018.68"/>
    <polygon class="cls-3" points="1215.01 2181.1 1188.9 2113.62 1171.83 2069.49 1168.89 2061.87 1151.18 2016.1 1115.8 2016.1 1116.83 2018.68 1154.76 2113.62 1150.26 2125.25 1149.51 2127.19 1128.65 2181.1 1062.4 2018.28 1020.97 2018.28 1108.14 2222.98 1145.22 2222.98 1166.5 2169.72 1167.26 2167.81 1171.83 2156.36 1198.44 2222.98 1235.52 2222.98 1322.69 2018.28 1281.27 2018.28 1215.01 2181.1"/>
  </g>
</svg>