<svg id="Layer_1" data-name="Layer 1" xmlns="http://www.w3.org/2000/svg" xmlns:xlink="http://www.w3.org/1999/xlink" viewBox="0 0 797.34 761.64"><defs><style>.cls-1{fill:url(#linear-gradient);}.cls-2{fill:url(#linear-gradient-2);}.cls-3{fill:url(#linear-gradient-3);}.cls-4{fill:url(#linear-gradient-4);}.cls-5{fill:url(#linear-gradient-5);}.cls-6{fill:url(#linear-gradient-6);}.cls-7{fill:url(#linear-gradient-7);}</style><linearGradient id="linear-gradient" x1="723.44" y1="164.63" x2="220.11" y2="700.41" gradientTransform="matrix(1, 0, 0, -1, 0, 764.24)" gradientUnits="userSpaceOnUse"><stop offset="0" stop-color="#003dff"/><stop offset="1" stop-color="#00b0ff"/></linearGradient><linearGradient id="linear-gradient-2" x1="600.2" y1="48.86" x2="96.88" y2="584.65" xlink:href="#linear-gradient"/><linearGradient id="linear-gradient-3" x1="730.68" y1="171.46" x2="227.39" y2="707.22" xlink:href="#linear-gradient"/><linearGradient id="linear-gradient-4" x1="615.79" y1="63.52" x2="112.47" y2="599.3" xlink:href="#linear-gradient"/><linearGradient id="linear-gradient-5" x1="459" y1="-83.76" x2="-44.29" y2="452" xlink:href="#linear-gradient"/><linearGradient id="linear-gradient-6" x1="465.03" y1="-78.11" x2="-38.29" y2="457.67" xlink:href="#linear-gradient"/><linearGradient id="linear-gradient-7" x1="504.74" y1="-40.79" x2="1.44" y2="494.97" xlink:href="#linear-gradient"/></defs><title>icon svg file</title><path class="cls-1" d="M765.55,297.81a106,106,0,0,0-53.76-31.58,117,117,0,0,0,7.15-14.62,109,109,0,0,0,7.85-43.19,119.74,119.74,0,0,0-31-81.27,101.75,101.75,0,0,0-74.9-33.62,104.89,104.89,0,0,0-11.21.67,120.07,120.07,0,0,0-32.06-62.4A102.12,102.12,0,0,0,433.2,28.08q-2.46,2.33-4.75,4.82A117.56,117.56,0,0,0,407.3,63.62V697.87a117.72,117.72,0,0,0,21.15,30.75,102.13,102.13,0,0,0,144.31,5.84c2-1.87,4-3.81,5.84-5.84a121,121,0,0,0,31.77-65.55h1.07a100.81,100.81,0,0,0,47.22-11.74,112.94,112.94,0,0,0,46.15-46,126.63,126.63,0,0,0,5.37-109.52,106.38,106.38,0,0,0,58.91-36.12,124.46,124.46,0,0,0-3.49-162ZM620.85,121.43a73.66,73.66,0,0,1,54.34,24.64,91.48,91.48,0,0,1,23.65,62.35,81.32,81.32,0,0,1-5.75,32.6h0a90.1,90.1,0,0,1-5.38,11.21l-18.65,32.65,36.47,8.44a78.39,78.39,0,0,1,39.59,23.38,91.87,91.87,0,0,1,23.54,52.11L647.72,358.47a42.35,42.35,0,0,0-41-31.88,41.1,41.1,0,0,0-5.76.4l-43.1-84.73a42.34,42.34,0,0,0,3.65-54.13l45.37-65.44,6-.7A79.43,79.43,0,0,1,620.85,121.43Zm11,247.52a25.14,25.14,0,1,1-25.15-25.13h0a25.49,25.49,0,0,1,2.9.16A25.1,25.1,0,0,1,631.84,369Zm-107.5-131a25.16,25.16,0,0,1-18.81-12.44A24.85,24.85,0,0,1,502.17,213a25.11,25.11,0,0,1,25.1-25.15h.51a25.15,25.15,0,0,1,21.5,37.43h0a25.1,25.1,0,0,1-21.93,12.85,25.69,25.69,0,0,1-3-.16ZM435.41,70.34a89.37,89.37,0,0,1,13.44-18.15,74.25,74.25,0,0,1,104.89-5q2.18,2,4.19,4.12a91.82,91.82,0,0,1,24.51,48l1.43,7.74-45.15,65.12a41.24,41.24,0,0,0-11.32-1.56,42.38,42.38,0,0,0-39,25.8l-53-3.49Zm0,150.5,51.06,3.38a42.42,42.42,0,0,0,40.77,31.1,40.67,40.67,0,0,0,5.73-.4l43.21,84.73a42.38,42.38,0,0,0,.7,59.29l-44.72,93.12c-1.26,0-2.53-.16-3.82-.16a42.36,42.36,0,0,0-41.65,34.62l-51.28,10.53ZM553.66,534.26a25.18,25.18,0,0,1-25.16,25.15h0a25.23,25.23,0,0,1-25.15-25.15,24.69,24.69,0,0,1,2.93-11.75,25.05,25.05,0,0,1,17.66-13,25.8,25.8,0,0,1,4.56-.43A25.21,25.21,0,0,1,553.66,534.26ZM583.22,659a93.25,93.25,0,0,1-24.7,50.5,74.27,74.27,0,0,1-104.93,4.93c-1.72-1.56-3.37-3.21-4.93-4.93a89.68,89.68,0,0,1-13.44-18.14V565.54l55.58-11.42a42.38,42.38,0,0,0,47,21.5l46,77ZM748.1,441.78h0a77.93,77.93,0,0,1-43.43,26.88l-33.38,7,13.15,31a99.2,99.2,0,0,1,7.71,33.94A98.11,98.11,0,0,1,680.4,592a84.76,84.76,0,0,1-34.64,34.72,72.86,72.86,0,0,1-34.24,8.52H606l-44.54-74.66a42.38,42.38,0,0,0-4-57L602,411a38.09,38.09,0,0,0,4.78.27,42.38,42.38,0,0,0,38.67-25l122.66,10.5a92.78,92.78,0,0,1-20.42,45Z"/><path class="cls-2" d="M293.75,0a103.53,103.53,0,0,0-74.1,31.8,120.07,120.07,0,0,0-32.06,62.4,104.89,104.89,0,0,0-11.21-.67,101.87,101.87,0,0,0-74.87,33.62,120,120,0,0,0-31,81.27,109.66,109.66,0,0,0,7.82,43.19,124.42,124.42,0,0,0,7.17,14.62,106,106,0,0,0-53.75,31.58,124.46,124.46,0,0,0-3.49,162,106.38,106.38,0,0,0,58.91,36.12,127.91,127.91,0,0,0-9.89,43.56A126.27,126.27,0,0,0,92.4,605.42a112.8,112.8,0,0,0,46.14,46,100.93,100.93,0,0,0,48.38,11.75,120.91,120.91,0,0,0,31.71,65.55,102.13,102.13,0,0,0,144.31,5.87q3.06-2.82,5.87-5.87A116.91,116.91,0,0,0,390,698V634.26L358.28,666H311a37.63,37.63,0,1,1,.16-25.83h36.41l42.39-42.38V484.86H321.27l-60.15,60.2H208.69a37.61,37.61,0,1,1,.19-25.83h41.55l60.12-60.14h79.39V393.73H141.63a37.64,37.64,0,1,1,0-25.83H389.94V302.51H310.55l-60.12-60.12H208.88a37.63,37.63,0,1,1-.19-25.83h52.43l60.15,60.26h68.67V163.94l-42.39-42.43H311.14A37.63,37.63,0,1,1,311,95.68h47.27l31.69,31.68V63.62A117,117,0,0,0,368.78,32.9,103.74,103.74,0,0,0,293.75,0Z"/><path class="cls-3" d="M259.81,93a22.44,22.44,0,0,0,31.71,31.74,21,21,0,0,0,2.69-3.19,22.42,22.42,0,0,0-.33-25.83A23.59,23.59,0,0,0,291.57,93a22.41,22.41,0,0,0-31.7-.09Z"/><path class="cls-4" d="M157.52,213.85a22.47,22.47,0,1,0,31.77.06l-.06-.06a22.41,22.41,0,0,0-31.7,0Z"/><path class="cls-5" d="M259.81,637a22.42,22.42,0,1,0,31.71,31.71h0a22,22,0,0,0,2.31-2.69,22.42,22.42,0,0,0,.32-25.82,20.41,20.41,0,0,0-2.69-3.17A22.4,22.4,0,0,0,259.81,637Z"/><path class="cls-6" d="M157.52,516a22.44,22.44,0,1,0,31.73,0l0,0a22.42,22.42,0,0,0-31.7,0Z"/><path class="cls-7" d="M90.36,364.94a22.43,22.43,0,0,0,31.71,31.72h0a22.23,22.23,0,0,0,6.37-12.82,21.35,21.35,0,0,0,0-6.08,22.44,22.44,0,0,0-38.08-12.82Z"/></svg>