<svg id="Layer_1" data-name="Layer 1" xmlns="http://www.w3.org/2000/svg" xmlns:xlink="http://www.w3.org/1999/xlink" viewBox="0 0 1600 283.38"><defs><style>.cls-1{fill:url(#linear-gradient);}.cls-2{fill:url(#linear-gradient-2);}.cls-3{fill:url(#linear-gradient-3);}.cls-4{fill:url(#linear-gradient-4);}.cls-5{fill:url(#linear-gradient-5);}.cls-6{fill:url(#linear-gradient-6);}.cls-7{fill:url(#linear-gradient-7);}.cls-8{fill:#fff;}.cls-9{fill:url(#linear-gradient-8);}</style><linearGradient id="linear-gradient" x1="269.17" y1="223.11" x2="81.89" y2="23.75" gradientUnits="userSpaceOnUse"><stop offset="0" stop-color="#003dff"/><stop offset="1" stop-color="#00b0ff"/></linearGradient><linearGradient id="linear-gradient-2" x1="223.32" y1="266.18" x2="36.04" y2="66.82" xlink:href="#linear-gradient"/><linearGradient id="linear-gradient-3" x1="271.79" y1="220.64" x2="84.52" y2="21.29" xlink:href="#linear-gradient"/><linearGradient id="linear-gradient-4" x1="229.13" y1="260.72" x2="41.85" y2="61.36" xlink:href="#linear-gradient"/><linearGradient id="linear-gradient-5" x1="170.79" y1="315.52" x2="-16.48" y2="116.17" xlink:href="#linear-gradient"/><linearGradient id="linear-gradient-6" x1="173.02" y1="313.43" x2="-14.26" y2="114.07" xlink:href="#linear-gradient"/><linearGradient id="linear-gradient-7" x1="187.8" y1="299.54" x2="0.53" y2="100.19" xlink:href="#linear-gradient"/><linearGradient id="linear-gradient-8" x1="538.91" y1="101.3" x2="527.68" y2="132.95" xlink:href="#linear-gradient"/></defs><title>svg vector file 2</title><path class="cls-1" d="M284.84,110.81a39.43,39.43,0,0,0-20-11.75,43.44,43.44,0,0,0,2.66-5.44,40.51,40.51,0,0,0,2.92-16.07,44.57,44.57,0,0,0-11.55-30.24A37.86,37.86,0,0,0,231,34.8a38.88,38.88,0,0,0-4.17.25,44.68,44.68,0,0,0-11.93-23.22,38,38,0,0,0-55.49.41,43.77,43.77,0,0,0-7.87,11.43v236a43.83,43.83,0,0,0,7.87,11.44,38,38,0,0,0,55.87,0,45,45,0,0,0,11.82-24.39h.4a37.54,37.54,0,0,0,17.57-4.37,42,42,0,0,0,17.17-17.12,47.11,47.11,0,0,0,2-40.75,39.57,39.57,0,0,0,21.92-13.44,46.31,46.31,0,0,0-1.3-60.27ZM231,45.18a27.42,27.42,0,0,1,20.22,9.17,34.05,34.05,0,0,1,8.8,23.2,30.29,30.29,0,0,1-2.14,12.13v0l0,0a33.74,33.74,0,0,1-2,4.17L248.94,106l13.57,3.14a29.16,29.16,0,0,1,14.73,8.7A34.2,34.2,0,0,1,286,137.23l-45-3.85a15.76,15.76,0,0,0-15.27-11.86,15.08,15.08,0,0,0-2.14.15L207.55,90.14A15.75,15.75,0,0,0,208.91,70l16.88-24.35,2.23-.26A29.69,29.69,0,0,1,231,45.18Zm4.09,92.1a9.36,9.36,0,0,1-17.41,4.77,9.42,9.42,0,0,1-1.3-4.77,9.35,9.35,0,0,1,9.36-9.35,9.51,9.51,0,0,1,1.08.06,9.34,9.34,0,0,1,8.27,9.29Zm-40-48.75a9.36,9.36,0,0,1-7-4.63,9.23,9.23,0,0,1-1.25-4.66,9.35,9.35,0,0,1,9.36-9.36h.17a9.36,9.36,0,0,1,8,13.93h0a9.34,9.34,0,0,1-8.16,4.78A9.82,9.82,0,0,1,195.08,88.53ZM162,26.17a33.32,33.32,0,0,1,5-6.75,27.63,27.63,0,0,1,40.59-.32,34.16,34.16,0,0,1,9.12,17.84l.53,2.88-16.8,24.23a15.4,15.4,0,0,0-4.21-.58,15.77,15.77,0,0,0-14.51,9.6L162,71.77Zm0,56,19,1.26A15.78,15.78,0,0,0,196.17,95a15,15,0,0,0,2.13-.15l16.08,31.53a15.77,15.77,0,0,0,.26,22.06L198,183.09c-.47,0-.94-.06-1.42-.06a15.76,15.76,0,0,0-15.5,12.88L162,199.83V82.17Zm44,116.62a9.37,9.37,0,0,1-9.36,9.36h0a9.39,9.39,0,0,1-9.36-9.36,9.19,9.19,0,0,1,1.09-4.37,9.32,9.32,0,0,1,6.57-4.83,9.51,9.51,0,0,1,1.7-.16,9.38,9.38,0,0,1,9.36,9.36Zm11,46.42A34.72,34.72,0,0,1,207.81,264a27.64,27.64,0,0,1-40.88,0,33.38,33.38,0,0,1-5-6.75V210.43l20.68-4.25a15.77,15.77,0,0,0,17.5,8l17.1,28.66Zm61.35-80.83v0h0a29,29,0,0,1-16.16,10L249.77,177l4.89,11.55a36.86,36.86,0,0,1,2.87,12.63,36.49,36.49,0,0,1-4.37,19.09,31.52,31.52,0,0,1-12.89,12.92,27.08,27.08,0,0,1-12.74,3.17h-2.06L208.9,208.58a15.77,15.77,0,0,0-1.47-21.2L224,152.94a15.05,15.05,0,0,0,1.78.1,15.78,15.78,0,0,0,14.39-9.32l45.64,3.91A34.51,34.51,0,0,1,278.21,164.38Z"/><path class="cls-2" d="M109.29,0A38.51,38.51,0,0,0,81.72,11.83,44.68,44.68,0,0,0,69.79,35.05a38.72,38.72,0,0,0-4.17-.25A37.9,37.9,0,0,0,37.76,47.31,44.66,44.66,0,0,0,26.22,77.55a40.88,40.88,0,0,0,2.91,16.07,46.46,46.46,0,0,0,2.67,5.44,39.43,39.43,0,0,0-20,11.75,46.31,46.31,0,0,0-1.3,60.27,39.57,39.57,0,0,0,21.92,13.44,47.64,47.64,0,0,0-3.68,16.21,47,47,0,0,0,5.63,24.54,42,42,0,0,0,17.17,17.12,37.55,37.55,0,0,0,18,4.37,45,45,0,0,0,11.8,24.39,38,38,0,0,0,55.88,0,43.59,43.59,0,0,0,7.87-11.44V236l-11.79,11.79H115.7a14,14,0,1,1,.06-9.61h13.55l15.77-15.77v-42H119.53L97.15,202.81H77.64a14,14,0,1,1,.07-9.61H93.17l22.37-22.38h29.54V146.5H52.69a14,14,0,1,1,0-9.61h92.39V112.56H115.54L93.17,90.19H77.71a14,14,0,1,1-.07-9.61H97.15L119.53,103h25.55V61L129.31,45.21H115.76a14,14,0,1,1-.06-9.61h17.59l11.79,11.79V23.67a43.53,43.53,0,0,0-7.87-11.43A38.61,38.61,0,0,0,109.29,0Z"/><path class="cls-3" d="M96.66,34.59a8.35,8.35,0,0,0,11.8,11.81,7.84,7.84,0,0,0,1-1.19,8.34,8.34,0,0,0-.12-9.61,9,9,0,0,0-.86-1A8.34,8.34,0,0,0,96.66,34.59Z"/><path class="cls-4" d="M58.6,79.57a8.36,8.36,0,1,0,11.8,0A8.34,8.34,0,0,0,58.6,79.57Z"/><path class="cls-5" d="M96.66,237a8.34,8.34,0,0,0,11.8,11.8,8.2,8.2,0,0,0,.86-1,8.34,8.34,0,0,0,.12-9.61,7.77,7.77,0,0,0-1-1.18A8.34,8.34,0,0,0,96.66,237Z"/><path class="cls-6" d="M58.6,192a8.35,8.35,0,1,0,11.8,0A8.34,8.34,0,0,0,58.6,192Z"/><path class="cls-7" d="M33.61,135.79a8.34,8.34,0,0,0,11.8,11.8,8.26,8.26,0,0,0,2.37-4.77,7.78,7.78,0,0,0,0-2.26,8.35,8.35,0,0,0-14.17-4.77Z"/><path class="cls-8" d="M416.63,131.61a150.76,150.76,0,0,0-26.28-8.49q-12.42-3.15-20.61-5.87t-12.2-6.81q-4-4.09-4-11.22,0-9.63,7.15-15.09t21.87-5.45a57.2,57.2,0,0,1,13,1.47,72.54,72.54,0,0,1,11.78,3.79,59.29,59.29,0,0,1,9.46,4.94,32.36,32.36,0,0,1,6.1,4.94l10.73-19.34a88.22,88.22,0,0,0-14.41-8.63,86.44,86.44,0,0,0-16.93-6,80.49,80.49,0,0,0-19.13-2.21,71.28,71.28,0,0,0-27.66,5.14A43.77,43.77,0,0,0,336.09,78.1Q329,88.27,328.94,103q0,11.53,4.94,19t14.83,12.16a146.19,146.19,0,0,0,24.6,8.7q12.82,3.15,22.08,6.29t14.09,7.66q4.84,4.5,4.84,12a15.9,15.9,0,0,1-7.47,14.12q-7.46,4.91-21.55,4.91a68.27,68.27,0,0,1-16.51-2,95.72,95.72,0,0,1-14.93-4.94,85.84,85.84,0,0,1-12-6.2,46.19,46.19,0,0,1-7.89-6l-10.72,20.19a90.62,90.62,0,0,0,18.4,11,100.38,100.38,0,0,0,21,6.83,107.42,107.42,0,0,0,22.19,2.32,89.83,89.83,0,0,0,21.24-2.41,53.2,53.2,0,0,0,17.45-7.55,35.4,35.4,0,0,0,11.78-13.31q4.2-8.17,4.2-19.49,0-13.43-5.88-21.59T416.63,131.61Z"/><path class="cls-8" d="M695.28,105q-12.51-7.81-29.76-7.81T635.45,105a55.34,55.34,0,0,0-20,20.58,59.06,59.06,0,0,0-3.05,49.79,55.18,55.18,0,0,0,29.65,30.26,58.12,58.12,0,0,0,23.23,4.49,61.08,61.08,0,0,0,21.45-3.68,54.12,54.12,0,0,0,17.14-10.09,42.16,42.16,0,0,0,10.83-14.41L695,176.25q-2.94,7.58-11.25,12.2a35.5,35.5,0,0,1-17.56,4.63A32.23,32.23,0,0,1,650.38,189a33.56,33.56,0,0,1-17.45-27.92H721c.14-1,.28-2.18.42-3.64s.21-3,.21-4.69a56,56,0,0,0-6.94-27.27A54.81,54.81,0,0,0,695.28,105Zm-63,40.76a33.66,33.66,0,0,1,5.26-16.39,33.14,33.14,0,0,1,11.88-11.13,32.16,32.16,0,0,1,15.87-4,32.64,32.64,0,0,1,16.09,4,34.13,34.13,0,0,1,12,11.13,33.13,33.13,0,0,1,5.36,16.39Z"/><path class="cls-8" d="M832.59,187.63q-1.37-1.66-1.36-5.61V141.47q0-21.19-12.73-32.74T783.7,97.19a75.08,75.08,0,0,0-23.24,3.57,88.13,88.13,0,0,0-22,10.94l7.78,15.56a105.21,105.21,0,0,1,17.45-9.15,46.91,46.91,0,0,1,17.46-3.26q13,0,20,6.42t6.94,17.8V146a59,59,0,0,0-13.56-3.36,110.9,110.9,0,0,0-15-1.05q-13.89,0-24.4,4.27a38.53,38.53,0,0,0-16.51,12.08,29.15,29.15,0,0,0-6,18.23,31.82,31.82,0,0,0,4.84,17.3,34,34,0,0,0,13.46,12.19,41.82,41.82,0,0,0,19.55,4.48,54,54,0,0,0,22.5-5.05,47.39,47.39,0,0,0,18.3-14.3l.63,6.31a13.71,13.71,0,0,0,4.42,8.41q3.78,3.59,11.14,3.58c1.12,0,2.52-.07,4.21-.21a50.7,50.7,0,0,0,5.67-.84V189.5Q834,189.29,832.59,187.63Zm-24.5-15a10.2,10.2,0,0,1-1.47,4.76,26.65,26.65,0,0,1-4,5.38,31.39,31.39,0,0,1-11.15,7.44,37.29,37.29,0,0,1-14.51,2.9,25.49,25.49,0,0,1-12.3-2.69,19.45,19.45,0,0,1-7.57-7,17.35,17.35,0,0,1-2.63-9.1q0-8.69,7.89-13.65t20.5-5a75.38,75.38,0,0,1,12.83,1.13,65.47,65.47,0,0,1,12.4,3.42Z"/><path class="cls-8" d="M908.19,187.19a25.79,25.79,0,0,1-9.25,1.68,12.17,12.17,0,0,1-8.1-2.72q-3.26-2.72-3.68-8.36v-61h24V98.87h-24V62.7H864V98.87H849.52v17.87H864V185.2q0,8.79,3.68,14.34a21.16,21.16,0,0,0,9.78,8.06,34.51,34.51,0,0,0,13.25,2.51,51.87,51.87,0,0,0,11.46-1.26,73.24,73.24,0,0,0,10-2.95q4.41-1.68,7.36-3.15l-4.84-18.3C913.31,185.16,911.13,186.07,908.19,187.19Z"/><path class="cls-8" d="M1028,131.61a151.16,151.16,0,0,0-26.29-8.49q-12.4-3.15-20.61-5.87t-12.19-6.81q-4-4.09-4-11.22,0-9.63,7.15-15.09T994,78.68a57.29,57.29,0,0,1,13,1.47,72.42,72.42,0,0,1,11.77,3.79,59.42,59.42,0,0,1,9.47,4.94,32.69,32.69,0,0,1,6.1,4.94l10.72-19.34a88.54,88.54,0,0,0-14.4-8.63,86.67,86.67,0,0,0-16.93-6,80.58,80.58,0,0,0-19.14-2.21,71.23,71.23,0,0,0-27.65,5.14A43.71,43.71,0,0,0,947.49,78.1q-7.15,10.17-7.15,24.85,0,11.53,4.94,19t14.82,12.16a146,146,0,0,0,24.61,8.7q12.82,3.15,22.08,6.29t14.09,7.66q4.83,4.5,4.83,12a15.91,15.91,0,0,1-7.46,14.12q-7.47,4.91-21.56,4.91a68.19,68.19,0,0,1-16.5-2,95.37,95.37,0,0,1-14.93-4.94,86,86,0,0,1-12-6.2,46.19,46.19,0,0,1-7.89-6l-10.72,20.19a91.17,91.17,0,0,0,18.4,11,100.66,100.66,0,0,0,21,6.83,107.32,107.32,0,0,0,22.18,2.32,89.83,89.83,0,0,0,21.24-2.41A53.25,53.25,0,0,0,1035,199.1a35.38,35.38,0,0,0,11.77-13.31q4.21-8.17,4.21-19.49,0-13.43-5.89-21.59T1028,131.61Z"/><path class="cls-8" d="M1162.93,110.41a27.52,27.52,0,0,0-10.62-9.68q-6.74-3.54-17-3.54a47,47,0,0,0-40.79,23.74V54.5h-23.13V208h23.13V143.22a35.19,35.19,0,0,1,7.36-13.12,38.88,38.88,0,0,1,11.56-9,27.91,27.91,0,0,1,12.62-3.31q9.88,0,15.35,7.28t5.47,22V208H1170V141.56a88.05,88.05,0,0,0-1.58-17A41.06,41.06,0,0,0,1162.93,110.41Z"/><path class="cls-8" d="M1288.88,187.63q-1.37-1.66-1.36-5.61V141.47q0-21.19-12.73-32.74T1240,97.19a75,75,0,0,0-23.23,3.57,88.19,88.19,0,0,0-22,10.94l7.78,15.56a104.88,104.88,0,0,1,17.46-9.15,46.82,46.82,0,0,1,17.45-3.26q13,0,20,6.42t6.94,17.8V146a59.2,59.2,0,0,0-13.57-3.36,110.9,110.9,0,0,0-15-1.05q-13.89,0-24.4,4.27a38.43,38.43,0,0,0-16.5,12.08,29.1,29.1,0,0,0-6,18.23,31.82,31.82,0,0,0,4.84,17.3,34,34,0,0,0,13.46,12.19,41.82,41.82,0,0,0,19.55,4.48,54,54,0,0,0,22.5-5.05,47.39,47.39,0,0,0,18.3-14.3l.63,6.31a13.71,13.71,0,0,0,4.42,8.41q3.78,3.59,11.14,3.58c1.12,0,2.53-.07,4.21-.21a51.18,51.18,0,0,0,5.68-.84V189.5Q1290.24,189.29,1288.88,187.63Zm-24.49-15a10.22,10.22,0,0,1-1.48,4.76,26.65,26.65,0,0,1-4,5.38,31.39,31.39,0,0,1-11.15,7.44,37.29,37.29,0,0,1-14.51,2.9,25.49,25.49,0,0,1-12.3-2.69,19.52,19.52,0,0,1-7.57-7,17.35,17.35,0,0,1-2.63-9.1q0-8.69,7.89-13.65t20.5-5a75.38,75.38,0,0,1,12.83,1.13,65.78,65.78,0,0,1,12.41,3.42Z"/><path class="cls-8" d="M1371.42,97a36.3,36.3,0,0,0-19.56,7.46,49.9,49.9,0,0,0-14.93,18.19V98.87h-21.45V208h23.14V140.72a33.19,33.19,0,0,1,14.82-16.62,49.43,49.43,0,0,1,23.87-6.1V97.19a12.46,12.46,0,0,0-2.42-.21Z"/><path class="cls-8" d="M1472,105q-12.51-7.81-29.75-7.81t-30.07,7.8a55.29,55.29,0,0,0-20,20.58,59.06,59.06,0,0,0-3,49.79,55.18,55.18,0,0,0,29.65,30.26,58.13,58.13,0,0,0,23.24,4.49,61.08,61.08,0,0,0,21.45-3.68,54.23,54.23,0,0,0,17.14-10.09,42.42,42.42,0,0,0,10.83-14.41l-19.77-5.68q-3,7.58-11.25,12.2a35.5,35.5,0,0,1-17.56,4.63,32.18,32.18,0,0,1-15.77-4.05,33.59,33.59,0,0,1-17.46-27.92h88.11c.14-1,.28-2.18.42-3.64s.21-3,.21-4.69a56.07,56.07,0,0,0-6.93-27.27A54.84,54.84,0,0,0,1472,105Zm-63,40.76a33.66,33.66,0,0,1,5.26-16.39,33.14,33.14,0,0,1,11.88-11.13,32.23,32.23,0,0,1,15.88-4,32.58,32.58,0,0,1,16.08,4,34,34,0,0,1,12,11.13,33.13,33.13,0,0,1,5.36,16.39Z"/><path class="cls-8" d="M1595.06,160.92q-4.95-5.71-14-9.36t-21.87-7.39q-7.35-2.28-12.4-4.16a19.34,19.34,0,0,1-7.57-4.57,9.91,9.91,0,0,1-2.53-7.07q0-5.41,3-8.43a16.23,16.23,0,0,1,7.68-4.16,40.27,40.27,0,0,1,9.67-1.14,43.07,43.07,0,0,1,16.51,3.15,51.58,51.58,0,0,1,15,9.89l9.89-15.35a48.31,48.31,0,0,0-18-11.46,64.78,64.78,0,0,0-22.19-3.68,59.87,59.87,0,0,0-22.6,4,34.23,34.23,0,0,0-15.25,11.46q-5.48,7.5-5.47,18.12,0,8.76,4,14.37t12,9.48a136.21,136.21,0,0,0,19.76,7.4q8.42,2.29,14.41,4.17a28.73,28.73,0,0,1,9.14,4.37q3.17,2.5,3.16,7.71a11.59,11.59,0,0,1-6.1,10.61q-6.11,3.61-15.77,3.61a51.5,51.5,0,0,1-19-3.79,64.85,64.85,0,0,1-19-12.2L1509,192a55.94,55.94,0,0,0,21.23,13.57,76.3,76.3,0,0,0,26.29,4.52q19.77,0,31.65-8.84T1600,176.62Q1600,166.65,1595.06,160.92Z"/><polygon class="cls-9" points="549.41 99.08 549.96 97.7 531.09 97.7 522.91 118.85 532.06 142.5 549.41 99.08"/><polygon class="cls-8" points="543.11 185.68 529.18 149.7 520.08 126.17 518.51 122.11 509.07 97.7 490.21 97.7 490.76 99.08 510.98 149.7 508.58 155.9 508.18 156.93 497.06 185.68 461.74 98.87 439.65 98.87 486.13 208 505.9 208 517.24 179.61 517.64 178.59 520.08 172.49 534.27 208 554.04 208 600.52 98.87 578.43 98.87 543.11 185.68"/></svg>